<!DOCTYPE svg PUBLIC "-//W3C//DTD SVG 1.1//EN" "http://www.w3.org/Graphics/SVG/1.1/DTD/svg11.dtd" [
	<!ENTITY ns_flows "http://ns.adobe.com/Flows/1.0/">
]><svg xmlns="http://www.w3.org/2000/svg" width="319" height="319" viewBox="-0.621 -0.806 319 319" enable-background="new -0.621 -0.806 319 319"><path fill="#414141" d="M233.782 177.91c-124.732-12.104-.415-62.39-.415-62.39 74.212-40.91-133-25.49-197.792 29.593 34.972-13.076 48.706-17.855 68.1-20.22 17.34-2.784 24.06 56.07 17.978 74.117-6.536 2.87-77.727-27.36-77.727-27.36 155.9 111.046 285.776 17.99 189.856 6.26zm-92.397 21.846c-4.452-71.524-18.647-78.483-18.647-78.483 21.385-8.35 91.837-14.19 91.837-14.19-59.656 26.81-51.967 46.99-51.675 48.56 12.61 32.38 75.89 38.27 75.89 38.27-17.534 15.586-97.405 5.843-97.405 5.843z"/><path fill="#E1E1E1" d="M158.96 0C71.17 0 0 71.167 0 158.96c0 87.787 71.17 158.958 158.96 158.958s158.958-71.17 158.958-158.96S246.748 0 158.958 0zm-.005 301.616c-78.78 0-142.653-63.873-142.653-142.66C16.302 80.17 80.176 16.3 158.955 16.3c78.787 0 142.66 63.87 142.66 142.653 0 78.788-63.873 142.66-142.66 142.66z"/></svg>