<?xml version="1.0" encoding="utf-8"?>
<!-- Generator: Adobe Illustrator 15.1.0, SVG Export Plug-In  -->
<!DOCTYPE svg PUBLIC "-//W3C//DTD SVG 1.1//EN" "http://www.w3.org/Graphics/SVG/1.1/DTD/svg11.dtd" [
	<!ENTITY ns_flows "http://ns.adobe.com/Flows/1.0/">
]>
<svg version="1.1"
	 xmlns="http://www.w3.org/2000/svg" xmlns:xlink="http://www.w3.org/1999/xlink" xmlns:a="http://ns.adobe.com/AdobeSVGViewerExtensions/3.0/"
	 x="0px" y="0px" width="319px" height="319px" viewBox="-0.621 -0.806 319 319" enable-background="new -0.621 -0.806 319 319"
	 xml:space="preserve">
<defs>
</defs>
<path fill="#414141" d="M233.782,177.91c-124.732-12.104-0.415-62.39-0.415-62.39c74.212-40.909-132.999-25.491-197.792,29.593
	c34.972-13.076,48.706-17.855,68.099-20.22c17.34-2.784,24.061,56.069,17.979,74.117c-6.536,2.871-77.727-27.36-77.727-27.36
	C199.825,282.696,329.702,189.641,233.782,177.91z M141.385,199.756c-4.452-71.524-18.647-78.483-18.647-78.483
	c21.385-8.351,91.837-14.191,91.837-14.191c-59.656,26.81-51.967,46.991-51.675,48.56c12.611,32.381,75.889,38.271,75.889,38.271
	C221.256,209.499,141.385,199.756,141.385,199.756z"/>
<path fill="#E1E1E1" d="M158.959,0C71.171,0,0,71.167,0,158.959c0,87.788,71.171,158.959,158.959,158.959
	s158.959-71.171,158.959-158.959C317.918,71.167,246.747,0,158.959,0z M158.955,301.616c-78.779,0-142.653-63.873-142.653-142.661
	c0-78.784,63.874-142.653,142.653-142.653c78.787,0,142.661,63.87,142.661,142.653C301.616,237.743,237.742,301.616,158.955,301.616
	z"/>
</svg>
